<?xml version="1.0" encoding="UTF-8" standalone="no"?>
<svg xmlns="http://www.w3.org/2000/svg" version="1.0" width="300" height="300"  viewBox="-18 -6 36 17">
  <defs>
    <clipPath id="clip_yellow">
      <path d="M -22,6 L -22,12 L -5,12 L -5,-2 L -11,-2 L -11,6 L -22,6 z " />
    </clipPath>
    <clipPath id="clip_green">
      <path d="M 0,6 L 0,12 L 17,12 L 17,-2 L 11,-2 L 11,6 L 0,6 z " />
    </clipPath>
  </defs>
  <path d="M 4.1016951 -1.7372881 A 7.0847459 7.0508475 0 1 1  -10.067797,-1.7372881 A 7.0847459 7.0508475 0 1 1  4.1016951 -1.7372881 z" transform="matrix(2.477719,0,0,2.477719,7.391162,6.804512)" style="fill:#CD7F32; stroke:#A05A2C; stroke-width:0.36;" />
  <g style="fill:none; stroke-width:2px" transform="matrix(0.473138,0,0,0.473138,-6.661338e-16,1.506879)">
    <circle cx="-11" cy="9" r="9" style="stroke:#f4c300" />
    <circle cx="11" cy="9" r="9" style="stroke:#009f3d" />
    <circle cx="-22" cy="0" r="9" style="stroke:#0085c7" />
    <circle cx="0" cy="0" r="9" style="stroke:#000000" />
    <circle cx="22" cy="0" r="9" style="stroke:#df0024" />
    <circle cx="-11" cy="9" r="9" style="stroke:#f4c300" clip-path="url(#clip_yellow)" />
    <circle cx="11" cy="9" r="9" style="stroke:#009f3d" clip-path="url(#clip_green)" />
  </g>
</svg>
